<svg width="461" height="454" viewBox="0 0 461 454" fill="none" xmlns="http://www.w3.org/2000/svg">
<path d="M434.015 407.727C439.539 398.942 436.317 377.832 434.015 368.375C432.526 361.054 387.526 384.391 401.795 396.745C413.21 406.629 428.032 408.185 434.015 407.727Z" fill="#2C8BC1" stroke="black" stroke-width="4" stroke-linecap="round" stroke-linejoin="round"/>
<path d="M312.813 106.2C341.97 107.097 344.197 134.612 341.666 148.257C338.022 129.864 320.913 127.883 312.813 129.191C301.07 131.434 299.146 123.397 299.652 119.098C299.652 107.882 308.426 105.826 312.813 106.2Z" fill="#42BDF6" stroke="black" stroke-width="4" stroke-linecap="round" stroke-linejoin="round"/>
<path d="M381.667 107.278C353.612 108.142 351.469 134.624 353.904 147.757C357.411 130.054 373.874 128.147 381.667 129.406C392.967 131.565 394.818 123.829 394.331 119.691C394.331 108.897 385.888 106.918 381.667 107.278Z" fill="#42BDF6" stroke="black" stroke-width="4" stroke-linecap="round" stroke-linejoin="round"/>
<path d="M343.617 158.539C384.175 155.322 447.783 183.127 456.687 264.266C460.341 290.577 455.29 331.796 428.477 369.234C401.599 406.762 353 440.289 269.925 451.331C269.838 451.343 269.749 451.348 269.661 451.348C221.042 451.348 118.238 426.409 74.8694 321.083C61.0898 317.513 41.5221 309.073 26.2679 294.915C10.5813 280.356 -0.612056 259.661 3.94072 232.127L3.9749 231.965C4.17491 231.169 4.84534 230.569 5.67119 230.468C6.55223 230.36 7.39883 230.846 7.75029 231.661C9.32665 235.318 16.2989 244.293 31.0306 247.846C38.3347 247.938 49.2881 248.775 58.7347 251.018C63.5 252.15 68.004 253.668 71.4808 255.704C73.3343 256.79 74.999 258.087 76.2347 259.631C80.6363 252.155 92.6498 242.003 117.549 237.408C119.879 236.146 123.511 233.761 127.009 230.593C130.655 227.29 134.01 223.268 135.693 218.919L135.755 218.773C136.097 218.062 136.831 217.613 137.629 217.641C138.481 217.672 139.219 218.239 139.469 219.054C142.314 228.322 144.398 243.677 141.505 259.871C138.697 275.592 131.176 292.189 115.033 304.693C117.964 308.216 124.803 313.954 137.641 315.104C140.477 315.085 144.579 314.098 149.505 312.016C154.441 309.928 160.068 306.8 165.854 302.666L166.59 302.124C170.358 299.267 175.39 294.281 181.187 287.846C187.34 281.015 194.258 272.661 201.29 263.734C215.356 245.88 229.822 225.809 239.454 211.218L239.493 211.16L240.029 210.421C251.657 194.653 287.294 163.724 342.664 158.621L343.617 158.539Z" fill="#40BDF7" stroke="black" stroke-width="4" stroke-linejoin="round"/>
<path d="M435.297 282.487C444.153 282.414 451.866 283.249 456.921 285.661L457.056 285.731C457.713 286.108 458.104 286.829 458.055 287.594C455.755 323.143 435.496 403.739 351.93 434.464L349.944 435.181C326.388 443.519 292.854 453.515 253.921 451.376C215.545 449.268 172.048 435.377 127.753 396.755L125.643 394.897C124.99 394.317 124.79 393.379 125.148 392.582C125.507 391.785 126.341 391.314 127.208 391.417C146.682 393.741 177.316 395.275 207.159 391.296C237.093 387.306 265.742 377.832 281.818 358.564C289.083 349.217 300.999 334.953 313.204 322.451C319.314 316.192 325.528 310.343 331.288 305.768C336.992 301.238 342.455 297.79 347.043 296.575L347.075 296.566C361.306 293.041 383.892 288.062 405.256 285.067C415.935 283.57 426.356 282.561 435.297 282.487Z" fill="#DBF2FA" stroke="black" stroke-width="4" stroke-linejoin="round"/>
<path d="M353.895 296.972C347.451 346.544 300.501 442.667 162.413 421.435M401.765 287.363C396.855 334.952 357.669 433.973 240.203 449.348M444.572 284.618C439.816 320.919 416.402 401.668 360.799 430.587" stroke="black" stroke-width="4" stroke-linecap="round" stroke-linejoin="round"/>
<path d="M195.094 415.029C215.715 399.288 225.32 364.847 225.934 349.137L255.622 342.502L285.311 335.867C288.257 373.206 270.975 389.862 261.376 400.386C236.336 427.841 205.681 421.283 195.094 415.029Z" fill="#3FBCF6"/>
<path d="M226.394 349.137C224.859 364.085 213.506 397.183 194.634 415.029C204.146 421.435 235.784 428.116 260.455 403.589C272.423 389.099 291.755 356.733 286.232 339.528" stroke="black" stroke-width="4" stroke-linecap="round" stroke-linejoin="round"/>
<path d="M331.34 295.142C338.091 297.43 356.288 295.142 380.592 289.651C399.924 284.465 442.271 279.035 457 287.821" stroke="black" stroke-width="4" stroke-linecap="round" stroke-linejoin="round"/>
<ellipse cx="314.77" cy="277.754" rx="11.5073" ry="11.4396" fill="#080B42"/>
<ellipse cx="312.008" cy="275.008" rx="3.22204" ry="3.20309" fill="#D9D9D9"/>
<ellipse cx="296.358" cy="304.751" rx="12.4279" ry="7.32135" fill="#FEBCBE"/>
<ellipse cx="13.78" cy="8.25384" rx="13.78" ry="8.25384" transform="matrix(0.804977 -0.593305 0.59784 0.801616 251.71 220.434)" fill="#97DDF7"/>
<path d="M331.801 170.221C334.716 172.509 344.873 175.712 362.18 170.221" stroke="black" stroke-width="6" stroke-linecap="round" stroke-linejoin="round"/>
<path d="M343.083 91.4545V90.9432C343.14 85.517 343.708 81.1989 344.788 77.9886C345.867 74.7784 347.401 72.179 349.39 70.1903C351.379 68.2017 353.765 66.3693 356.549 64.6932C358.225 63.6705 359.731 62.4631 361.066 61.071C362.401 59.6506 363.453 58.017 364.22 56.1705C365.015 54.3239 365.413 52.2784 365.413 50.0341C365.413 47.25 364.759 44.8352 363.453 42.7898C362.146 40.7443 360.399 39.1676 358.211 38.0597C356.024 36.9517 353.595 36.3977 350.924 36.3977C348.595 36.3977 346.35 36.8807 344.191 37.8466C342.032 38.8125 340.228 40.3324 338.779 42.4062C337.33 44.4801 336.492 47.1932 336.265 50.5455H325.526C325.754 45.7159 327.004 41.5824 329.276 38.1449C331.578 34.7074 334.603 32.0795 338.353 30.2614C342.132 28.4432 346.322 27.5341 350.924 27.5341C355.924 27.5341 360.271 28.5284 363.964 30.517C367.685 32.5057 370.555 35.233 372.572 38.6989C374.617 42.1648 375.64 46.1136 375.64 50.5455C375.64 53.6705 375.157 56.4972 374.191 59.0256C373.254 61.554 371.89 63.8125 370.1 65.8011C368.339 67.7898 366.208 69.5511 363.708 71.0852C361.208 72.6477 359.205 74.2955 357.7 76.0284C356.194 77.733 355.1 79.7642 354.418 82.1222C353.737 84.4801 353.367 87.4205 353.31 90.9432V91.4545H343.083ZM348.538 116.682C346.435 116.682 344.632 115.929 343.126 114.423C341.62 112.918 340.867 111.114 340.867 109.011C340.867 106.909 341.62 105.105 343.126 103.599C344.632 102.094 346.435 101.341 348.538 101.341C350.64 101.341 352.444 102.094 353.95 103.599C355.455 105.105 356.208 106.909 356.208 109.011C356.208 110.403 355.853 111.682 355.143 112.847C354.461 114.011 353.538 114.949 352.373 115.659C351.237 116.341 349.958 116.682 348.538 116.682Z" fill="#40BCF0"/>
<path d="M343.083 91.4545H341.083C341.083 92.5591 341.979 93.4545 343.083 93.4545V91.4545ZM343.083 90.9432L341.083 90.9222C341.083 90.9292 341.083 90.9362 341.083 90.9432L343.083 90.9432ZM344.788 77.9886L342.892 77.3511L342.892 77.3511L344.788 77.9886ZM349.39 70.1903L350.804 71.6046L350.804 71.6046L349.39 70.1903ZM356.549 64.6932L357.581 66.4067L357.591 66.4005L356.549 64.6932ZM361.066 61.071L362.51 62.4555C362.514 62.4506 362.519 62.4457 362.523 62.4408L361.066 61.071ZM364.22 56.1705L362.383 55.3792C362.379 55.3872 362.376 55.3952 362.373 55.4032L364.22 56.1705ZM344.191 37.8466L343.374 36.021L343.374 36.021L344.191 37.8466ZM338.779 42.4062L340.419 43.5517L340.419 43.5517L338.779 42.4062ZM336.265 50.5455V52.5455C337.317 52.5455 338.189 51.7304 338.26 50.6807L336.265 50.5455ZM325.526 50.5455L323.529 50.4514C323.503 50.9976 323.702 51.5304 324.079 51.926C324.457 52.3216 324.98 52.5455 325.526 52.5455V50.5455ZM329.276 38.1449L327.614 37.0323L327.608 37.0419L329.276 38.1449ZM338.353 30.2614L337.486 28.4592L337.481 28.4617L338.353 30.2614ZM363.964 30.517L363.016 32.278L363.021 32.281L363.964 30.517ZM372.572 38.6989L370.843 39.7049L370.849 39.7154L372.572 38.6989ZM374.191 59.0256L372.323 58.3118C372.321 58.318 372.318 58.3241 372.316 58.3303L374.191 59.0256ZM370.1 65.8011L368.614 64.4632C368.61 64.4671 368.607 64.4711 368.603 64.4751L370.1 65.8011ZM363.708 71.0852L362.662 69.3806C362.658 69.3834 362.653 69.3863 362.648 69.3892L363.708 71.0852ZM357.7 76.0284L359.199 77.3525C359.202 77.3484 359.206 77.3443 359.209 77.3402L357.7 76.0284ZM353.31 90.9432L351.311 90.9109C351.311 90.9217 351.31 90.9324 351.31 90.9432H353.31ZM353.31 91.4545V93.4545C354.415 93.4545 355.31 92.5591 355.31 91.4545H353.31ZM343.126 114.423L344.54 113.009L344.54 113.009L343.126 114.423ZM343.126 103.599L344.54 105.014L344.54 105.014L343.126 103.599ZM353.95 103.599L355.364 102.185L353.95 103.599ZM355.143 112.847L353.435 111.805C353.429 111.816 353.423 111.826 353.417 111.836L355.143 112.847ZM352.373 115.659L353.402 117.374C353.406 117.372 353.41 117.369 353.414 117.367L352.373 115.659ZM343.083 91.4545H345.083V90.9432H343.083H341.083V91.4545H343.083ZM343.083 90.9432L345.083 90.9641C345.139 85.6375 345.699 81.5547 346.683 78.6261L344.788 77.9886L342.892 77.3511C341.718 80.843 341.141 85.3966 341.083 90.9222L343.083 90.9432ZM344.788 77.9886L346.683 78.6261C347.684 75.6494 349.074 73.3347 350.804 71.6046L349.39 70.1903L347.976 68.7761C345.729 71.0232 344.05 73.9074 342.892 77.3511L344.788 77.9886ZM349.39 70.1903L350.804 71.6046C352.662 69.747 354.915 68.0116 357.581 66.4066L356.549 64.6932L355.518 62.9797C352.615 64.727 350.096 66.6564 347.976 68.7761L349.39 70.1903ZM356.549 64.6932L357.591 66.4005C359.412 65.2895 361.053 63.9742 362.51 62.4555L361.066 61.071L359.623 59.6866C358.409 60.9519 357.039 62.0514 355.507 62.9859L356.549 64.6932ZM361.066 61.071L362.523 62.4408C364.028 60.8401 365.209 59.0012 366.067 56.9377L364.22 56.1705L362.373 55.4032C361.696 57.0329 360.775 58.461 359.609 59.7012L361.066 61.071ZM364.22 56.1705L366.056 56.9617C366.971 54.8377 367.413 52.5188 367.413 50.0341H365.413H363.413C363.413 52.038 363.059 53.8101 362.383 55.3792L364.22 56.1705ZM365.413 50.0341H367.413C367.413 46.9259 366.679 44.1252 365.138 41.713L363.453 42.7898L361.767 43.8665C362.84 45.5452 363.413 47.5741 363.413 50.0341H365.413ZM363.453 42.7898L365.138 41.713C363.636 39.3628 361.618 37.5433 359.115 36.2755L358.211 38.0597L357.307 39.8439C359.179 40.7919 360.655 42.1258 361.767 43.8665L363.453 42.7898ZM358.211 38.0597L359.115 36.2755C356.623 35.0133 353.88 34.3977 350.924 34.3977V36.3977V38.3977C353.309 38.3977 355.424 38.8901 357.307 39.8439L358.211 38.0597ZM350.924 36.3977V34.3977C348.309 34.3977 345.786 34.9419 343.374 36.021L344.191 37.8466L345.008 39.6722C346.914 38.8194 348.88 38.3977 350.924 38.3977V36.3977ZM344.191 37.8466L343.374 36.021C340.861 37.1452 338.781 38.9113 337.14 41.2608L338.779 42.4062L340.419 43.5517C341.675 41.7534 343.203 40.4798 345.008 39.6722L344.191 37.8466ZM338.779 42.4062L337.14 41.2608C335.425 43.7153 334.514 46.8108 334.27 50.4102L336.265 50.5455L338.26 50.6807C338.471 47.5756 339.236 45.2449 340.419 43.5517L338.779 42.4062ZM336.265 50.5455V48.5455H325.526V50.5455V52.5455H336.265V50.5455ZM325.526 50.5455L327.524 50.6395C327.737 46.1068 328.903 42.3363 330.945 39.2479L329.276 38.1449L327.608 37.0419C325.105 40.8285 323.77 45.325 323.529 50.4514L325.526 50.5455ZM329.276 38.1449L330.938 39.2575C333.04 36.1173 335.793 33.7255 339.226 32.061L338.353 30.2614L337.481 28.4617C333.414 30.4336 330.115 33.2975 327.614 37.0323L329.276 38.1449ZM338.353 30.2614L339.22 32.0636C342.703 30.3879 346.592 29.5341 350.924 29.5341V27.5341V25.5341C346.051 25.5341 341.56 26.4985 337.486 28.4592L338.353 30.2614ZM350.924 27.5341V29.5341C355.657 29.5341 359.665 30.4738 363.016 32.278L363.964 30.517L364.912 28.7561C360.876 26.583 356.192 25.5341 350.924 25.5341V27.5341ZM363.964 30.517L363.021 32.281C366.434 34.1043 369.023 36.5767 370.843 39.7048L372.572 38.6989L374.3 37.6929C372.087 33.8892 368.937 30.907 364.906 28.7531L363.964 30.517ZM372.572 38.6989L370.849 39.7154C372.695 42.8428 373.64 46.434 373.64 50.5455H375.64H377.64C377.64 45.7933 376.539 41.4868 374.294 37.6824L372.572 38.6989ZM375.64 50.5455H373.64C373.64 53.4637 373.189 56.0436 372.323 58.3118L374.191 59.0256L376.059 59.7393C377.125 56.9507 377.64 53.8772 377.64 50.5455H375.64ZM374.191 59.0256L372.316 58.3303C371.466 60.6238 370.233 62.6638 368.614 64.4632L370.1 65.8011L371.587 67.1391C373.547 64.9612 375.042 62.4842 376.066 59.7209L374.191 59.0256ZM370.1 65.8011L368.603 64.4751C366.985 66.3014 365.011 67.9391 362.662 69.3806L363.708 71.0852L364.754 72.7899C367.405 71.1632 369.692 69.2781 371.597 67.1272L370.1 65.8011ZM363.708 71.0852L362.648 69.3892C360.025 71.0286 357.857 72.7985 356.19 74.7167L357.7 76.0284L359.209 77.3402C360.554 75.7924 362.391 74.2669 364.768 72.7812L363.708 71.0852ZM357.7 76.0284L356.201 74.7043C354.484 76.6479 353.255 78.9473 352.497 81.5666L354.418 82.1222L356.34 82.6777C356.946 80.5811 357.904 78.818 359.199 77.3525L357.7 76.0284ZM354.418 82.1222L352.497 81.5666C351.75 84.1509 351.369 87.281 351.311 90.9109L353.31 90.9432L355.31 90.9754C355.365 87.56 355.723 84.8093 356.34 82.6777L354.418 82.1222ZM353.31 90.9432H351.31V91.4545H353.31H355.31V90.9432H353.31ZM353.31 91.4545V89.4545H343.083V91.4545V93.4545H353.31V91.4545ZM348.538 116.682V114.682C346.974 114.682 345.676 114.145 344.54 113.009L343.126 114.423L341.712 115.838C343.587 117.713 345.897 118.682 348.538 118.682V116.682ZM343.126 114.423L344.54 113.009C343.404 111.873 342.867 110.576 342.867 109.011H340.867H338.867C338.867 111.652 339.836 113.962 341.712 115.838L343.126 114.423ZM340.867 109.011H342.867C342.867 107.447 343.404 106.15 344.54 105.014L343.126 103.599L341.712 102.185C339.836 104.061 338.867 106.371 338.867 109.011H340.867ZM343.126 103.599L344.54 105.014C345.676 103.878 346.974 103.341 348.538 103.341V101.341V99.3409C345.897 99.3409 343.587 100.31 341.712 102.185L343.126 103.599ZM348.538 101.341V103.341C350.102 103.341 351.399 103.878 352.535 105.014L353.95 103.599L355.364 102.185C353.489 100.31 351.178 99.3409 348.538 99.3409V101.341ZM353.95 103.599L352.535 105.014C353.672 106.15 354.208 107.447 354.208 109.011H356.208H358.208C358.208 106.371 357.239 104.061 355.364 102.185L353.95 103.599ZM356.208 109.011H354.208C354.208 110.044 353.95 110.961 353.435 111.805L355.143 112.847L356.85 113.888C357.756 112.403 358.208 110.763 358.208 109.011H356.208ZM355.143 112.847L353.417 111.836C352.904 112.712 352.217 113.412 351.332 113.951L352.373 115.659L353.414 117.367C354.858 116.486 356.018 115.31 356.869 113.857L355.143 112.847ZM352.373 115.659L351.344 113.944C350.541 114.426 349.623 114.682 348.538 114.682V116.682V118.682C350.294 118.682 351.932 118.256 353.402 117.374L352.373 115.659Z" fill="black"/>
</svg>
